<mxfile host="app.diagrams.net" modified="2023-12-15T15:33:14.442Z" agent="Mozilla/5.0 (Windows NT 10.0; Win64; x64) AppleWebKit/537.36 (KHTML, like Gecko) Chrome/118.0.5993.731 YaBrowser/23.11.1.731 Yowser/2.5 Safari/537.36" etag="RA38M3yLLUD2OKJcdp57" version="22.1.11" type="github">
  <diagram name="Страница — 1" id="ponGt4ZlQZ8tgk8bFvVd">
    <mxGraphModel dx="2004" dy="801" grid="1" gridSize="10" guides="1" tooltips="1" connect="1" arrows="1" fold="1" page="1" pageScale="1" pageWidth="1169" pageHeight="827" math="0" shadow="0">
      <root>
        <mxCell id="0" />
        <mxCell id="1" parent="0" />
        <mxCell id="Y7DTLhBJiYZk3cN3ozTO-1" value="Окно_авторизации" style="swimlane;fontStyle=0;childLayout=stackLayout;horizontal=1;startSize=30;horizontalStack=0;resizeParent=1;resizeParentMax=0;resizeLast=0;collapsible=1;marginBottom=0;whiteSpace=wrap;html=1;" parent="1" vertex="1">
          <mxGeometry x="140" y="480" width="140" height="90" as="geometry" />
        </mxCell>
        <mxCell id="Y7DTLhBJiYZk3cN3ozTO-2" value="-Авторизовать пользователя" style="text;strokeColor=none;fillColor=none;align=left;verticalAlign=middle;spacingLeft=4;spacingRight=4;overflow=hidden;points=[[0,0.5],[1,0.5]];portConstraint=eastwest;rotatable=0;whiteSpace=wrap;html=1;" parent="Y7DTLhBJiYZk3cN3ozTO-1" vertex="1">
          <mxGeometry y="30" width="140" height="30" as="geometry" />
        </mxCell>
        <mxCell id="Y7DTLhBJiYZk3cN3ozTO-4" value="-Регистрация" style="text;strokeColor=none;fillColor=none;align=left;verticalAlign=middle;spacingLeft=4;spacingRight=4;overflow=hidden;points=[[0,0.5],[1,0.5]];portConstraint=eastwest;rotatable=0;whiteSpace=wrap;html=1;" parent="Y7DTLhBJiYZk3cN3ozTO-1" vertex="1">
          <mxGeometry y="60" width="140" height="30" as="geometry" />
        </mxCell>
        <mxCell id="Y7DTLhBJiYZk3cN3ozTO-8" value="Окно_регистрация" style="swimlane;fontStyle=0;childLayout=stackLayout;horizontal=1;startSize=30;horizontalStack=0;resizeParent=1;resizeParentMax=0;resizeLast=0;collapsible=1;marginBottom=0;whiteSpace=wrap;html=1;" parent="1" vertex="1">
          <mxGeometry x="470" y="470" width="140" height="120" as="geometry">
            <mxRectangle x="90" y="400" width="110" height="30" as="alternateBounds" />
          </mxGeometry>
        </mxCell>
        <mxCell id="Y7DTLhBJiYZk3cN3ozTO-9" value="-Ввести данные" style="text;strokeColor=none;fillColor=none;align=left;verticalAlign=middle;spacingLeft=4;spacingRight=4;overflow=hidden;points=[[0,0.5],[1,0.5]];portConstraint=eastwest;rotatable=0;whiteSpace=wrap;html=1;" parent="Y7DTLhBJiYZk3cN3ozTO-8" vertex="1">
          <mxGeometry y="30" width="140" height="30" as="geometry" />
        </mxCell>
        <mxCell id="Y7DTLhBJiYZk3cN3ozTO-11" value="-Выйти в меню" style="text;strokeColor=none;fillColor=none;align=left;verticalAlign=middle;spacingLeft=4;spacingRight=4;overflow=hidden;points=[[0,0.5],[1,0.5]];portConstraint=eastwest;rotatable=0;whiteSpace=wrap;html=1;" parent="Y7DTLhBJiYZk3cN3ozTO-8" vertex="1">
          <mxGeometry y="60" width="140" height="30" as="geometry" />
        </mxCell>
        <mxCell id="Y7DTLhBJiYZk3cN3ozTO-10" value="-Зарегистрироваться" style="text;strokeColor=none;fillColor=none;align=left;verticalAlign=middle;spacingLeft=4;spacingRight=4;overflow=hidden;points=[[0,0.5],[1,0.5]];portConstraint=eastwest;rotatable=0;whiteSpace=wrap;html=1;" parent="Y7DTLhBJiYZk3cN3ozTO-8" vertex="1">
          <mxGeometry y="90" width="140" height="30" as="geometry" />
        </mxCell>
        <mxCell id="Y7DTLhBJiYZk3cN3ozTO-12" style="edgeStyle=orthogonalEdgeStyle;rounded=0;orthogonalLoop=1;jettySize=auto;html=1;exitX=1;exitY=0.5;exitDx=0;exitDy=0;entryX=-0.009;entryY=0.863;entryDx=0;entryDy=0;entryPerimeter=0;" parent="1" source="Y7DTLhBJiYZk3cN3ozTO-1" target="Y7DTLhBJiYZk3cN3ozTO-9" edge="1">
          <mxGeometry relative="1" as="geometry" />
        </mxCell>
        <mxCell id="Y7DTLhBJiYZk3cN3ozTO-13" value="Нажата кнопка -Регистрация" style="text;html=1;align=center;verticalAlign=middle;resizable=0;points=[];autosize=1;strokeColor=none;fillColor=none;" parent="1" vertex="1">
          <mxGeometry x="280" y="498" width="180" height="30" as="geometry" />
        </mxCell>
        <mxCell id="Y7DTLhBJiYZk3cN3ozTO-14" value="Окно_выбора_действий клиента" style="swimlane;fontStyle=0;childLayout=stackLayout;horizontal=1;startSize=30;horizontalStack=0;resizeParent=1;resizeParentMax=0;resizeLast=0;collapsible=1;marginBottom=0;whiteSpace=wrap;html=1;" parent="1" vertex="1">
          <mxGeometry x="650" y="470" width="140" height="150" as="geometry">
            <mxRectangle x="650" y="470" width="220" height="30" as="alternateBounds" />
          </mxGeometry>
        </mxCell>
        <mxCell id="Y7DTLhBJiYZk3cN3ozTO-15" value="-Просмотр списка доступных путевок" style="text;strokeColor=none;fillColor=none;align=left;verticalAlign=middle;spacingLeft=4;spacingRight=4;overflow=hidden;points=[[0,0.5],[1,0.5]];portConstraint=eastwest;rotatable=0;whiteSpace=wrap;html=1;" parent="Y7DTLhBJiYZk3cN3ozTO-14" vertex="1">
          <mxGeometry y="30" width="140" height="30" as="geometry" />
        </mxCell>
        <mxCell id="Y7DTLhBJiYZk3cN3ozTO-16" value="-Просмотр истории покупок" style="text;strokeColor=none;fillColor=none;align=left;verticalAlign=middle;spacingLeft=4;spacingRight=4;overflow=hidden;points=[[0,0.5],[1,0.5]];portConstraint=eastwest;rotatable=0;whiteSpace=wrap;html=1;" parent="Y7DTLhBJiYZk3cN3ozTO-14" vertex="1">
          <mxGeometry y="60" width="140" height="30" as="geometry" />
        </mxCell>
        <mxCell id="Y7DTLhBJiYZk3cN3ozTO-28" value="-Редактирование личных данных" style="text;strokeColor=none;fillColor=none;align=left;verticalAlign=middle;spacingLeft=4;spacingRight=4;overflow=hidden;points=[[0,0.5],[1,0.5]];portConstraint=eastwest;rotatable=0;whiteSpace=wrap;html=1;" parent="Y7DTLhBJiYZk3cN3ozTO-14" vertex="1">
          <mxGeometry y="90" width="140" height="30" as="geometry" />
        </mxCell>
        <mxCell id="Y7DTLhBJiYZk3cN3ozTO-17" value="-Выход из учетной записи" style="text;strokeColor=none;fillColor=none;align=left;verticalAlign=middle;spacingLeft=4;spacingRight=4;overflow=hidden;points=[[0,0.5],[1,0.5]];portConstraint=eastwest;rotatable=0;whiteSpace=wrap;html=1;" parent="Y7DTLhBJiYZk3cN3ozTO-14" vertex="1">
          <mxGeometry y="120" width="140" height="30" as="geometry" />
        </mxCell>
        <mxCell id="Y7DTLhBJiYZk3cN3ozTO-18" value="" style="curved=1;endArrow=classic;html=1;rounded=0;exitX=-0.021;exitY=-0.079;exitDx=0;exitDy=0;exitPerimeter=0;entryX=1.021;entryY=1.001;entryDx=0;entryDy=0;entryPerimeter=0;" parent="1" source="Y7DTLhBJiYZk3cN3ozTO-10" target="Y7DTLhBJiYZk3cN3ozTO-4" edge="1">
          <mxGeometry width="50" height="50" relative="1" as="geometry">
            <mxPoint x="340" y="640" as="sourcePoint" />
            <mxPoint x="390" y="590" as="targetPoint" />
            <Array as="points">
              <mxPoint x="390" y="590" />
              <mxPoint x="340" y="590" />
            </Array>
          </mxGeometry>
        </mxCell>
        <mxCell id="Y7DTLhBJiYZk3cN3ozTO-19" value="Клиент зарегистрирован" style="text;html=1;align=center;verticalAlign=middle;resizable=0;points=[];autosize=1;strokeColor=none;fillColor=none;" parent="1" vertex="1">
          <mxGeometry x="280" y="590" width="160" height="30" as="geometry" />
        </mxCell>
        <mxCell id="Y7DTLhBJiYZk3cN3ozTO-20" value="" style="curved=1;endArrow=classic;html=1;rounded=0;entryX=0;entryY=0;entryDx=0;entryDy=0;" parent="1" target="Y7DTLhBJiYZk3cN3ozTO-14" edge="1">
          <mxGeometry width="50" height="50" relative="1" as="geometry">
            <mxPoint x="280" y="490" as="sourcePoint" />
            <mxPoint x="330" y="440" as="targetPoint" />
            <Array as="points">
              <mxPoint x="330" y="490" />
              <mxPoint x="520" y="420" />
            </Array>
          </mxGeometry>
        </mxCell>
        <mxCell id="Y7DTLhBJiYZk3cN3ozTO-21" value="Авторизация клиента" style="text;html=1;align=center;verticalAlign=middle;resizable=0;points=[];autosize=1;strokeColor=none;fillColor=none;" parent="1" vertex="1">
          <mxGeometry x="420" y="408" width="140" height="30" as="geometry" />
        </mxCell>
        <mxCell id="Y7DTLhBJiYZk3cN3ozTO-25" value="" style="ellipse;html=1;shape=startState;fillColor=#000000;strokeColor=#ff0000;" parent="1" vertex="1">
          <mxGeometry x="25" y="510" width="30" height="30" as="geometry" />
        </mxCell>
        <mxCell id="Y7DTLhBJiYZk3cN3ozTO-26" value="" style="edgeStyle=orthogonalEdgeStyle;html=1;verticalAlign=bottom;endArrow=open;endSize=8;strokeColor=#ff0000;rounded=0;entryX=-0.011;entryY=0.491;entryDx=0;entryDy=0;entryPerimeter=0;" parent="1" source="Y7DTLhBJiYZk3cN3ozTO-25" target="Y7DTLhBJiYZk3cN3ozTO-2" edge="1">
          <mxGeometry relative="1" as="geometry">
            <mxPoint x="40" y="698" as="targetPoint" />
          </mxGeometry>
        </mxCell>
        <mxCell id="Y7DTLhBJiYZk3cN3ozTO-30" value="" style="curved=1;endArrow=classic;html=1;rounded=0;exitX=0.048;exitY=1.014;exitDx=0;exitDy=0;exitPerimeter=0;entryX=0.356;entryY=1.1;entryDx=0;entryDy=0;entryPerimeter=0;" parent="1" source="Y7DTLhBJiYZk3cN3ozTO-17" target="Y7DTLhBJiYZk3cN3ozTO-4" edge="1">
          <mxGeometry width="50" height="50" relative="1" as="geometry">
            <mxPoint x="430" y="700" as="sourcePoint" />
            <mxPoint x="480" y="650" as="targetPoint" />
            <Array as="points">
              <mxPoint x="480" y="680" />
              <mxPoint x="450" y="680" />
              <mxPoint x="420" y="680" />
              <mxPoint x="350" y="670" />
            </Array>
          </mxGeometry>
        </mxCell>
        <mxCell id="Y7DTLhBJiYZk3cN3ozTO-31" value="Нажата кнопка -Выйти" style="text;html=1;align=center;verticalAlign=middle;resizable=0;points=[];autosize=1;strokeColor=none;fillColor=none;" parent="1" vertex="1">
          <mxGeometry x="355" y="678" width="150" height="30" as="geometry" />
        </mxCell>
        <mxCell id="Y7DTLhBJiYZk3cN3ozTO-32" value="Окно_просмотра_путевок" style="swimlane;fontStyle=0;childLayout=stackLayout;horizontal=1;startSize=30;horizontalStack=0;resizeParent=1;resizeParentMax=0;resizeLast=0;collapsible=1;marginBottom=0;whiteSpace=wrap;html=1;" parent="1" vertex="1">
          <mxGeometry x="1040" y="470" width="140" height="180" as="geometry">
            <mxRectangle x="650" y="470" width="220" height="30" as="alternateBounds" />
          </mxGeometry>
        </mxCell>
        <mxCell id="Y7DTLhBJiYZk3cN3ozTO-33" value="-Выбрать путевку" style="text;strokeColor=none;fillColor=none;align=left;verticalAlign=middle;spacingLeft=4;spacingRight=4;overflow=hidden;points=[[0,0.5],[1,0.5]];portConstraint=eastwest;rotatable=0;whiteSpace=wrap;html=1;" parent="Y7DTLhBJiYZk3cN3ozTO-32" vertex="1">
          <mxGeometry y="30" width="140" height="30" as="geometry" />
        </mxCell>
        <mxCell id="Y7DTLhBJiYZk3cN3ozTO-34" value="Выбрать кол-во недель" style="text;strokeColor=none;fillColor=none;align=left;verticalAlign=middle;spacingLeft=4;spacingRight=4;overflow=hidden;points=[[0,0.5],[1,0.5]];portConstraint=eastwest;rotatable=0;whiteSpace=wrap;html=1;" parent="Y7DTLhBJiYZk3cN3ozTO-32" vertex="1">
          <mxGeometry y="60" width="140" height="30" as="geometry" />
        </mxCell>
        <mxCell id="Y7DTLhBJiYZk3cN3ozTO-35" value="-Выбрать кол-во путевок" style="text;strokeColor=none;fillColor=none;align=left;verticalAlign=middle;spacingLeft=4;spacingRight=4;overflow=hidden;points=[[0,0.5],[1,0.5]];portConstraint=eastwest;rotatable=0;whiteSpace=wrap;html=1;" parent="Y7DTLhBJiYZk3cN3ozTO-32" vertex="1">
          <mxGeometry y="90" width="140" height="30" as="geometry" />
        </mxCell>
        <mxCell id="Y7DTLhBJiYZk3cN3ozTO-39" value="-Перейти к оформлению" style="text;strokeColor=none;fillColor=none;align=left;verticalAlign=middle;spacingLeft=4;spacingRight=4;overflow=hidden;points=[[0,0.5],[1,0.5]];portConstraint=eastwest;rotatable=0;whiteSpace=wrap;html=1;" parent="Y7DTLhBJiYZk3cN3ozTO-32" vertex="1">
          <mxGeometry y="120" width="140" height="30" as="geometry" />
        </mxCell>
        <mxCell id="Y7DTLhBJiYZk3cN3ozTO-36" value="-Выйти" style="text;strokeColor=none;fillColor=none;align=left;verticalAlign=middle;spacingLeft=4;spacingRight=4;overflow=hidden;points=[[0,0.5],[1,0.5]];portConstraint=eastwest;rotatable=0;whiteSpace=wrap;html=1;" parent="Y7DTLhBJiYZk3cN3ozTO-32" vertex="1">
          <mxGeometry y="150" width="140" height="30" as="geometry" />
        </mxCell>
        <mxCell id="Y7DTLhBJiYZk3cN3ozTO-37" value="" style="endArrow=classic;html=1;rounded=0;exitX=1.015;exitY=0.643;exitDx=0;exitDy=0;exitPerimeter=0;entryX=-0.011;entryY=0.681;entryDx=0;entryDy=0;entryPerimeter=0;" parent="1" source="Y7DTLhBJiYZk3cN3ozTO-15" target="Y7DTLhBJiYZk3cN3ozTO-33" edge="1">
          <mxGeometry width="50" height="50" relative="1" as="geometry">
            <mxPoint x="850" y="560" as="sourcePoint" />
            <mxPoint x="900" y="510" as="targetPoint" />
          </mxGeometry>
        </mxCell>
        <mxCell id="Y7DTLhBJiYZk3cN3ozTO-38" value="Нажата кнопка&lt;br&gt;-Просмотр списка доступных путевок" style="text;html=1;align=center;verticalAlign=middle;resizable=0;points=[];autosize=1;strokeColor=none;fillColor=none;" parent="1" vertex="1">
          <mxGeometry x="800" y="480" width="230" height="40" as="geometry" />
        </mxCell>
        <mxCell id="Y7DTLhBJiYZk3cN3ozTO-40" value="" style="endArrow=classic;html=1;rounded=0;entryX=1.019;entryY=0.329;entryDx=0;entryDy=0;entryPerimeter=0;exitX=0.005;exitY=0.329;exitDx=0;exitDy=0;exitPerimeter=0;" parent="1" source="Y7DTLhBJiYZk3cN3ozTO-39" target="Y7DTLhBJiYZk3cN3ozTO-17" edge="1">
          <mxGeometry width="50" height="50" relative="1" as="geometry">
            <mxPoint x="960" y="640" as="sourcePoint" />
            <mxPoint x="1010" y="590" as="targetPoint" />
          </mxGeometry>
        </mxCell>
        <mxCell id="Y7DTLhBJiYZk3cN3ozTO-41" value="Нажата кнопка&lt;br&gt;-Выйти" style="text;html=1;align=center;verticalAlign=middle;resizable=0;points=[];autosize=1;strokeColor=none;fillColor=none;" parent="1" vertex="1">
          <mxGeometry x="860" y="563" width="110" height="40" as="geometry" />
        </mxCell>
        <mxCell id="Y7DTLhBJiYZk3cN3ozTO-42" value="Окно_покупки_путевки" style="swimlane;fontStyle=0;childLayout=stackLayout;horizontal=1;startSize=30;horizontalStack=0;resizeParent=1;resizeParentMax=0;resizeLast=0;collapsible=1;marginBottom=0;whiteSpace=wrap;html=1;" parent="1" vertex="1">
          <mxGeometry x="1450" y="470" width="140" height="90" as="geometry">
            <mxRectangle x="650" y="470" width="220" height="30" as="alternateBounds" />
          </mxGeometry>
        </mxCell>
        <mxCell id="Y7DTLhBJiYZk3cN3ozTO-43" value="-Подтвердить&amp;nbsp;" style="text;strokeColor=none;fillColor=none;align=left;verticalAlign=middle;spacingLeft=4;spacingRight=4;overflow=hidden;points=[[0,0.5],[1,0.5]];portConstraint=eastwest;rotatable=0;whiteSpace=wrap;html=1;" parent="Y7DTLhBJiYZk3cN3ozTO-42" vertex="1">
          <mxGeometry y="30" width="140" height="30" as="geometry" />
        </mxCell>
        <mxCell id="Y7DTLhBJiYZk3cN3ozTO-47" value="-Выйти" style="text;strokeColor=none;fillColor=none;align=left;verticalAlign=middle;spacingLeft=4;spacingRight=4;overflow=hidden;points=[[0,0.5],[1,0.5]];portConstraint=eastwest;rotatable=0;whiteSpace=wrap;html=1;" parent="Y7DTLhBJiYZk3cN3ozTO-42" vertex="1">
          <mxGeometry y="60" width="140" height="30" as="geometry" />
        </mxCell>
        <mxCell id="Y7DTLhBJiYZk3cN3ozTO-48" value="" style="endArrow=classic;html=1;rounded=0;entryX=-0.006;entryY=0.653;entryDx=0;entryDy=0;exitX=1.003;exitY=0.68;exitDx=0;exitDy=0;exitPerimeter=0;entryPerimeter=0;" parent="1" source="Y7DTLhBJiYZk3cN3ozTO-33" target="Y7DTLhBJiYZk3cN3ozTO-43" edge="1">
          <mxGeometry width="50" height="50" relative="1" as="geometry">
            <mxPoint x="1184.9" y="523.99" as="sourcePoint" />
            <mxPoint x="1390" y="520" as="targetPoint" />
          </mxGeometry>
        </mxCell>
        <mxCell id="Y7DTLhBJiYZk3cN3ozTO-49" value="Путевка выбрана.&lt;br&gt;Нажата кнопка&lt;br&gt;-Перейти к оформлению" style="text;html=1;align=center;verticalAlign=middle;resizable=0;points=[];autosize=1;strokeColor=none;fillColor=none;" parent="1" vertex="1">
          <mxGeometry x="1230" y="460" width="160" height="60" as="geometry" />
        </mxCell>
        <mxCell id="Y7DTLhBJiYZk3cN3ozTO-50" value="" style="endArrow=classic;html=1;rounded=0;entryX=1;entryY=0.36;entryDx=0;entryDy=0;entryPerimeter=0;exitX=-0.009;exitY=0.333;exitDx=0;exitDy=0;exitPerimeter=0;" parent="1" target="Y7DTLhBJiYZk3cN3ozTO-34" edge="1">
          <mxGeometry width="50" height="50" relative="1" as="geometry">
            <mxPoint x="1448.7400000000002" y="539.99" as="sourcePoint" />
            <mxPoint x="1420" y="600" as="targetPoint" />
          </mxGeometry>
        </mxCell>
        <mxCell id="Y7DTLhBJiYZk3cN3ozTO-51" value="Нажата кнопка&amp;nbsp;&lt;br&gt;-Выйти" style="text;html=1;align=center;verticalAlign=middle;resizable=0;points=[];autosize=1;strokeColor=none;fillColor=none;" parent="1" vertex="1">
          <mxGeometry x="1255" y="550" width="110" height="40" as="geometry" />
        </mxCell>
        <mxCell id="Y7DTLhBJiYZk3cN3ozTO-52" value="" style="curved=1;endArrow=classic;html=1;rounded=0;exitX=0.143;exitY=0;exitDx=0;exitDy=0;exitPerimeter=0;entryX=1.033;entryY=-0.014;entryDx=0;entryDy=0;entryPerimeter=0;" parent="1" source="Y7DTLhBJiYZk3cN3ozTO-42" target="Y7DTLhBJiYZk3cN3ozTO-14" edge="1">
          <mxGeometry width="50" height="50" relative="1" as="geometry">
            <mxPoint x="1440" y="440" as="sourcePoint" />
            <mxPoint x="1490" y="390" as="targetPoint" />
            <Array as="points">
              <mxPoint x="1420" y="440" />
              <mxPoint x="1340" y="420" />
              <mxPoint x="980" y="410" />
            </Array>
          </mxGeometry>
        </mxCell>
        <mxCell id="Y7DTLhBJiYZk3cN3ozTO-53" value="Нажата кнопка -Подтвердить&lt;br&gt;Заказ сформирован и отправлен в БД заказов" style="text;html=1;align=center;verticalAlign=middle;resizable=0;points=[];autosize=1;strokeColor=none;fillColor=none;" parent="1" vertex="1">
          <mxGeometry x="980" y="373" width="280" height="40" as="geometry" />
        </mxCell>
        <mxCell id="Y7DTLhBJiYZk3cN3ozTO-54" value="Окно_истории_покупок" style="swimlane;fontStyle=0;childLayout=stackLayout;horizontal=1;startSize=30;horizontalStack=0;resizeParent=1;resizeParentMax=0;resizeLast=0;collapsible=1;marginBottom=0;whiteSpace=wrap;html=1;" parent="1" vertex="1">
          <mxGeometry x="650" y="720" width="140" height="90" as="geometry">
            <mxRectangle x="650" y="470" width="220" height="30" as="alternateBounds" />
          </mxGeometry>
        </mxCell>
        <mxCell id="Y7DTLhBJiYZk3cN3ozTO-56" value="-Таблица истории покупок пользователя" style="text;strokeColor=none;fillColor=none;align=left;verticalAlign=middle;spacingLeft=4;spacingRight=4;overflow=hidden;points=[[0,0.5],[1,0.5]];portConstraint=eastwest;rotatable=0;whiteSpace=wrap;html=1;" parent="Y7DTLhBJiYZk3cN3ozTO-54" vertex="1">
          <mxGeometry y="30" width="140" height="30" as="geometry" />
        </mxCell>
        <mxCell id="Y7DTLhBJiYZk3cN3ozTO-61" value="-Выйти" style="text;strokeColor=none;fillColor=none;align=left;verticalAlign=middle;spacingLeft=4;spacingRight=4;overflow=hidden;points=[[0,0.5],[1,0.5]];portConstraint=eastwest;rotatable=0;whiteSpace=wrap;html=1;" parent="Y7DTLhBJiYZk3cN3ozTO-54" vertex="1">
          <mxGeometry y="60" width="140" height="30" as="geometry" />
        </mxCell>
        <mxCell id="Y7DTLhBJiYZk3cN3ozTO-57" value="" style="endArrow=classic;html=1;rounded=0;exitX=0.506;exitY=1.105;exitDx=0;exitDy=0;exitPerimeter=0;entryX=0.5;entryY=0;entryDx=0;entryDy=0;" parent="1" source="Y7DTLhBJiYZk3cN3ozTO-17" target="Y7DTLhBJiYZk3cN3ozTO-54" edge="1">
          <mxGeometry width="50" height="50" relative="1" as="geometry">
            <mxPoint x="710" y="700" as="sourcePoint" />
            <mxPoint x="760" y="650" as="targetPoint" />
            <Array as="points" />
          </mxGeometry>
        </mxCell>
        <mxCell id="Y7DTLhBJiYZk3cN3ozTO-58" value="Нажата кнопка &lt;br&gt;-Просмотр истории покупок" style="text;html=1;align=center;verticalAlign=middle;resizable=0;points=[];autosize=1;strokeColor=none;fillColor=none;" parent="1" vertex="1">
          <mxGeometry x="720" y="650" width="180" height="40" as="geometry" />
        </mxCell>
        <mxCell id="Y7DTLhBJiYZk3cN3ozTO-59" value="" style="endArrow=classic;html=1;rounded=0;entryX=0.146;entryY=1.036;entryDx=0;entryDy=0;entryPerimeter=0;" parent="1" target="Y7DTLhBJiYZk3cN3ozTO-17" edge="1">
          <mxGeometry width="50" height="50" relative="1" as="geometry">
            <mxPoint x="670" y="720" as="sourcePoint" />
            <mxPoint x="720" y="670" as="targetPoint" />
          </mxGeometry>
        </mxCell>
        <mxCell id="Y7DTLhBJiYZk3cN3ozTO-60" value="Нажата кнопка&lt;br&gt;-Выйти" style="text;html=1;align=center;verticalAlign=middle;resizable=0;points=[];autosize=1;strokeColor=none;fillColor=none;" parent="1" vertex="1">
          <mxGeometry x="560" y="668" width="110" height="40" as="geometry" />
        </mxCell>
        <mxCell id="Y7DTLhBJiYZk3cN3ozTO-62" value="Редактирование личных данных" style="swimlane;fontStyle=0;childLayout=stackLayout;horizontal=1;startSize=30;horizontalStack=0;resizeParent=1;resizeParentMax=0;resizeLast=0;collapsible=1;marginBottom=0;whiteSpace=wrap;html=1;" parent="1" vertex="1">
          <mxGeometry x="650" y="220" width="140" height="120" as="geometry">
            <mxRectangle x="650" y="470" width="220" height="30" as="alternateBounds" />
          </mxGeometry>
        </mxCell>
        <mxCell id="Y7DTLhBJiYZk3cN3ozTO-63" value="-Изменение данных" style="text;strokeColor=none;fillColor=none;align=left;verticalAlign=middle;spacingLeft=4;spacingRight=4;overflow=hidden;points=[[0,0.5],[1,0.5]];portConstraint=eastwest;rotatable=0;whiteSpace=wrap;html=1;" parent="Y7DTLhBJiYZk3cN3ozTO-62" vertex="1">
          <mxGeometry y="30" width="140" height="30" as="geometry" />
        </mxCell>
        <mxCell id="Y7DTLhBJiYZk3cN3ozTO-67" value="-Принять изменения" style="text;strokeColor=none;fillColor=none;align=left;verticalAlign=middle;spacingLeft=4;spacingRight=4;overflow=hidden;points=[[0,0.5],[1,0.5]];portConstraint=eastwest;rotatable=0;whiteSpace=wrap;html=1;" parent="Y7DTLhBJiYZk3cN3ozTO-62" vertex="1">
          <mxGeometry y="60" width="140" height="30" as="geometry" />
        </mxCell>
        <mxCell id="Y7DTLhBJiYZk3cN3ozTO-64" value="-Выйти" style="text;strokeColor=none;fillColor=none;align=left;verticalAlign=middle;spacingLeft=4;spacingRight=4;overflow=hidden;points=[[0,0.5],[1,0.5]];portConstraint=eastwest;rotatable=0;whiteSpace=wrap;html=1;" parent="Y7DTLhBJiYZk3cN3ozTO-62" vertex="1">
          <mxGeometry y="90" width="140" height="30" as="geometry" />
        </mxCell>
        <mxCell id="Y7DTLhBJiYZk3cN3ozTO-65" value="" style="endArrow=classic;html=1;rounded=0;entryX=0.429;entryY=1;entryDx=0;entryDy=0;entryPerimeter=0;" parent="1" target="Y7DTLhBJiYZk3cN3ozTO-64" edge="1">
          <mxGeometry width="50" height="50" relative="1" as="geometry">
            <mxPoint x="710" y="470" as="sourcePoint" />
            <mxPoint x="760" y="420" as="targetPoint" />
          </mxGeometry>
        </mxCell>
        <mxCell id="Y7DTLhBJiYZk3cN3ozTO-66" value="Нажата кнопка&amp;nbsp;&lt;br&gt;-Редактирование личных данных" style="text;html=1;align=center;verticalAlign=middle;resizable=0;points=[];autosize=1;strokeColor=none;fillColor=none;" parent="1" vertex="1">
          <mxGeometry x="705" y="340" width="210" height="40" as="geometry" />
        </mxCell>
        <mxCell id="Y7DTLhBJiYZk3cN3ozTO-68" value="" style="endArrow=classic;html=1;rounded=0;exitX=0.214;exitY=1;exitDx=0;exitDy=0;exitPerimeter=0;entryX=0.214;entryY=0;entryDx=0;entryDy=0;entryPerimeter=0;" parent="1" source="Y7DTLhBJiYZk3cN3ozTO-64" target="Y7DTLhBJiYZk3cN3ozTO-14" edge="1">
          <mxGeometry width="50" height="50" relative="1" as="geometry">
            <mxPoint x="650" y="420" as="sourcePoint" />
            <mxPoint x="700" y="370" as="targetPoint" />
          </mxGeometry>
        </mxCell>
        <mxCell id="Y7DTLhBJiYZk3cN3ozTO-69" value="Нажата кнопка&lt;br&gt;-Выйти&lt;br&gt;" style="text;html=1;align=center;verticalAlign=middle;resizable=0;points=[];autosize=1;strokeColor=none;fillColor=none;" parent="1" vertex="1">
          <mxGeometry x="575" y="360" width="110" height="40" as="geometry" />
        </mxCell>
        <mxCell id="Y7DTLhBJiYZk3cN3ozTO-70" value="" style="curved=1;endArrow=classic;html=1;rounded=0;entryX=0.869;entryY=-0.038;entryDx=0;entryDy=0;entryPerimeter=0;exitX=0.147;exitY=-0.02;exitDx=0;exitDy=0;exitPerimeter=0;" parent="1" source="Y7DTLhBJiYZk3cN3ozTO-8" target="Y7DTLhBJiYZk3cN3ozTO-1" edge="1">
          <mxGeometry width="50" height="50" relative="1" as="geometry">
            <mxPoint x="170" y="418" as="sourcePoint" />
            <mxPoint x="220" y="368" as="targetPoint" />
            <Array as="points">
              <mxPoint x="460" y="350" />
              <mxPoint x="100" y="410" />
            </Array>
          </mxGeometry>
        </mxCell>
        <mxCell id="Y7DTLhBJiYZk3cN3ozTO-71" value="Нажата кнопка&lt;br&gt;-Выйти в меню" style="text;html=1;align=center;verticalAlign=middle;resizable=0;points=[];autosize=1;strokeColor=none;fillColor=none;" parent="1" vertex="1">
          <mxGeometry x="280" y="333" width="110" height="40" as="geometry" />
        </mxCell>
      </root>
    </mxGraphModel>
  </diagram>
</mxfile>
